# xmcd
#
# Track frame offsets: 
#        150
#        16408
#        30108
#        39966
#        58206
#        74426
#        89915
#        111014
#        131952
#        145285
#        155929
#        166647
#        179454
#
# Disc length: 2584 seconds
#
# Revision: 0
# Processed by: cddbd v1.5.2PL0 Copyright (c) Steve Scherf et al.
# Submitted via: ExactAudioCopy v0.99pb4
#
DISCID=b70a160d
DTITLE=Szymanski Pawel - Krol Watpliwosci
DYEAR=2009
DGENRE=blued
TTITLE0=Ostatnia Przysluga
TTITLE1=Zwierzenia Wierszoklety
TTITLE2=Krol Watpliwosci
TTITLE3=Skrzyzowanie
TTITLE4=Przyjaciolki Oraz Kolezanki
TTITLE5=Sprzecznosc Zjawisk
TTITLE6=Ostroda 2007
TTITLE7=Ballada o Miescie
TTITLE8=Pewnych Rzeczy Sie Nie Mowi
TTITLE9=Marcel
TTITLE10=Ach Tak Bym Chcial
TTITLE11=Wino Lustro I Ja
TTITLE12=Pospieszny O Polnocy
EXTD=
EXTT0=
EXTT1=
EXTT2=
EXTT3=
EXTT4=
EXTT5=
EXTT6=
EXTT7=
EXTT8=
EXTT9=
EXTT10=
EXTT11=
EXTT12=
PLAYORDER=
